<svg width="488" height="77" viewBox="0 0 488 77" fill="none" xmlns="http://www.w3.org/2000/svg">
<path d="M27.4 76.05C18.15 76.05 14.15 70.7 12.9 70.7C11.9 70.7 8.35 76.25 7.2 76.25C6.8 76.25 6.3 75.9 6.2 75.4L2.4 53.85C2.35 53.45 2.35 53.25 2.5 53.15C2.7 53.05 2.95 53.2 3.1 53.45C11.5 70.55 18.95 75.1 26.3 75.1C33.5 75.1 38.2 71.05 38.2 63.4C38.2 56.35 34.4 51.1 22.35 46.8C6.6 41.2 0.85 34.15 0.85 24C0.85 12.1 10.65 4 24.15 4C32.55 4 36.3 8.1 37.8 8.1C39.1 8.1 43.05 3.8 44.1 3.8C44.4 3.8 44.7 4 44.85 4.45L50.15 25.9C50.25 26.3 50.2 26.5 50.05 26.6C49.9 26.7 49.6 26.55 49.45 26.3C40.4 9.5 33.15 4.95 25 4.95C18.05 4.95 13.05 9.69999 13.05 17.6C13.05 24.9 16.7 30.3 28.2 34.55C44.65 40.5 49.9 47.25 49.9 56.7C49.9 67.5 41.6 76.05 27.4 76.05ZM78.7406 30.1C91.8906 30.1 101.341 39.65 101.341 53.25C101.341 66.7 91.6406 76 78.1406 76C64.9406 76 55.6406 66.75 55.6406 53.25C55.6406 39.8 65.1906 30.1 78.7406 30.1ZM81.1906 75.15C87.3406 74.55 90.4406 66.7 88.7406 52.05C86.9906 37.3 82.3406 30.35 75.8406 31C69.4406 31.65 66.6406 39.7 68.3906 54.1C70.0906 68.6 74.9406 75.8 81.1906 75.15ZM109.248 63.3V35.9C109.248 35.45 109.048 35.25 108.548 35.25H105.298C104.998 35.25 104.848 35.1 104.848 34.9C104.848 34.65 104.998 34.6 105.248 34.5L119.648 30.5C120.248 30.35 120.348 30.3 120.648 30.3C120.998 30.3 121.198 30.6 121.198 30.9V62.1C121.198 68 123.998 70.6 128.498 70.6C131.298 70.6 134.198 69.45 137.048 66.85L137.598 66.35V35.9C137.598 35.45 137.398 35.25 136.898 35.25H133.648C133.348 35.25 133.198 35.1 133.198 34.9C133.198 34.65 133.398 34.6 133.648 34.5L147.948 30.5C148.548 30.35 148.698 30.3 148.998 30.3C149.348 30.3 149.498 30.6 149.498 30.9V72.25C149.498 73.1 149.848 73.65 150.698 73.8L153.448 74.3C153.848 74.35 153.998 74.5 153.998 74.7C153.998 74.9 153.798 75 153.548 75H138.898C138.048 75 137.598 74.5 137.598 73.55V67.35L137.498 67.45C130.598 73.6 125.248 75.85 120.498 75.85C113.948 75.85 109.248 71.95 109.248 63.3ZM173.353 30.8V38.8L173.653 38.55C180.253 32.6 184.753 30.1 189.003 30.1C195.103 30.1 198.403 33.8 199.453 41.95L203.203 71.95C203.303 73.05 203.653 73.7 204.703 73.9L207.153 74.35C207.503 74.4 207.603 74.5 207.603 74.7C207.603 74.9 207.453 75 207.203 75H186.703C186.453 75 186.253 74.9 186.253 74.7C186.253 74.5 186.403 74.35 186.803 74.3L189.653 73.8C190.703 73.65 191.103 72.9 191.003 71.95L187.703 43.15C187.003 37.75 185.303 35.4 181.603 35.4C179.153 35.4 176.853 36.6 174.103 39.1L173.353 39.8V72.25C173.353 73.1 173.703 73.65 174.553 73.8L177.303 74.3C177.653 74.35 177.803 74.5 177.803 74.7C177.803 74.9 177.653 75 177.403 75H157.253C157.003 75 156.853 74.9 156.853 74.7C156.853 74.55 157.003 74.4 157.353 74.35L160.203 73.8C161.053 73.65 161.403 73.1 161.403 72.3V35.75C161.403 35.35 161.203 35.1 160.753 35.1H157.503C157.153 35.1 157.053 35 157.053 34.75C157.053 34.55 157.203 34.5 157.453 34.4L171.803 30.4C172.403 30.25 172.553 30.2 172.803 30.2C173.153 30.2 173.353 30.45 173.353 30.8ZM209.309 54.35C209.309 39.4 218.559 30.1 230.109 30.1C235.009 30.1 238.459 31.6 241.009 34.2V6.35C241.009 5.95 240.809 5.7 240.359 5.7H237.109C236.759 5.7 236.659 5.55 236.659 5.35C236.659 5.09999 236.809 5.05 237.059 4.95L251.409 0.949997C252.009 0.799996 252.109 0.799996 252.409 0.799996C252.759 0.799996 252.959 1.05 252.959 1.35V72.25C252.959 73.1 253.309 73.65 254.159 73.8L256.909 74.3C257.259 74.35 257.409 74.5 257.409 74.7C257.409 74.9 257.259 75 257.009 75H242.309C241.459 75 241.009 74.55 241.009 73.55V69.55C236.759 74.2 232.809 76 227.759 76C216.959 76 209.309 67.75 209.309 54.35ZM221.409 53.25C221.409 67.2 225.659 73.4 231.709 73.4C234.709 73.4 238.009 71.9 241.009 68.4V35.55C239.109 33.1 236.359 31.7 232.909 31.7C226.459 31.7 221.409 37.5 221.409 53.25ZM288.24 76.05C278.99 76.05 274.99 70.7 273.74 70.7C272.74 70.7 269.19 76.25 268.04 76.25C267.64 76.25 267.14 75.9 267.04 75.4L263.24 53.85C263.19 53.45 263.19 53.25 263.34 53.15C263.54 53.05 263.79 53.2 263.94 53.45C272.34 70.55 279.79 75.1 287.14 75.1C294.34 75.1 299.04 71.05 299.04 63.4C299.04 56.35 295.24 51.1 283.19 46.8C267.44 41.2 261.69 34.15 261.69 24C261.69 12.1 271.49 4 284.99 4C293.39 4 297.14 8.1 298.64 8.1C299.94 8.1 303.89 3.8 304.94 3.8C305.24 3.8 305.54 4 305.69 4.45L310.99 25.9C311.09 26.3 311.04 26.5 310.89 26.6C310.74 26.7 310.44 26.55 310.29 26.3C301.24 9.5 293.99 4.95 285.84 4.95C278.89 4.95 273.89 9.69999 273.89 17.6C273.89 24.9 277.54 30.3 289.04 34.55C305.49 40.5 310.74 47.25 310.74 56.7C310.74 67.5 302.44 76.05 288.24 76.05ZM355.03 41.85C355.03 45.4 352.83 47.7 349.38 47.7C345.78 47.7 343.58 45.45 343.58 41.3V37.65C343.58 33.5 341.18 30.95 337.38 30.95C331.43 30.95 327.58 37.6 327.58 48.2C327.58 61.4 333.78 68.5 342.08 68.5C348.18 68.5 352.73 65.85 354.28 60.05C354.33 59.8 354.48 59.7 354.63 59.75C354.78 59.75 354.88 59.95 354.83 60.2C352.88 70.25 345.88 75.95 336.03 75.95C324.73 75.95 316.23 68.35 316.23 54C316.23 40.4 325.28 30.1 338.33 30.1C349.13 30.1 355.03 35.2 355.03 41.85ZM381.573 30.1C394.723 30.1 404.173 39.65 404.173 53.25C404.173 66.7 394.473 76 380.973 76C367.773 76 358.473 66.75 358.473 53.25C358.473 39.8 368.023 30.1 381.573 30.1ZM384.023 75.15C390.173 74.55 393.273 66.7 391.573 52.05C389.823 37.3 385.173 30.35 378.673 31C372.273 31.65 369.473 39.7 371.223 54.1C372.923 68.6 377.773 75.8 384.023 75.15ZM412.08 63.3V35.9C412.08 35.45 411.88 35.25 411.38 35.25H408.13C407.83 35.25 407.68 35.1 407.68 34.9C407.68 34.65 407.83 34.6 408.08 34.5L422.48 30.5C423.08 30.35 423.18 30.3 423.48 30.3C423.83 30.3 424.03 30.6 424.03 30.9V62.1C424.03 68 426.83 70.6 431.33 70.6C434.13 70.6 437.03 69.45 439.88 66.85L440.43 66.35V35.9C440.43 35.45 440.23 35.25 439.73 35.25H436.48C436.18 35.25 436.03 35.1 436.03 34.9C436.03 34.65 436.23 34.6 436.48 34.5L450.78 30.5C451.38 30.35 451.53 30.3 451.83 30.3C452.18 30.3 452.33 30.6 452.33 30.9V72.25C452.33 73.1 452.68 73.65 453.53 73.8L456.28 74.3C456.68 74.35 456.83 74.5 456.83 74.7C456.83 74.9 456.63 75 456.38 75H441.73C440.88 75 440.43 74.5 440.43 73.55V67.35L440.33 67.45C433.43 73.6 428.08 75.85 423.33 75.85C416.78 75.85 412.08 71.95 412.08 63.3ZM463.335 32.75L458.985 31.85C458.585 31.8 458.485 31.65 458.485 31.45C458.485 31.3 458.635 31.1 458.835 31.1H463.235C463.635 31.1 463.885 31.05 464.185 30.65L473.835 21.15C474.135 20.85 474.585 20.6 474.885 20.6C475.235 20.6 475.535 20.9 475.535 21.35V31.1H487.035C487.335 31.1 487.535 31.2 487.535 31.5C487.535 31.85 487.035 32.15 486.285 32.15H475.535V63.45C475.535 68.85 477.685 71.45 481.235 71.45C483.785 71.45 485.935 70.05 486.935 66.2C487.035 65.8 487.485 65.85 487.385 66.25C485.785 72.8 482.485 75.9 476.085 75.9C468.335 75.9 463.985 72.3 463.985 64.7V33.7C463.985 33.1 463.835 32.85 463.335 32.75Z" fill="white"/>
</svg>
